<?xml version="1.0" encoding="UTF-8"?><svg xmlns="http://www.w3.org/2000/svg" xmlns:xlink="http://www.w3.org/1999/xlink" version="1.1" id="Layer_1" x="0px" y="0px" viewBox="0 0 100 100" xml:space="preserve"><path fill="#03ADAD" d="M88 2H12C6.477 2 2 6.477 2 12v76c0 5.523 4.477 10 10 10h76c5.523 0 10-4.477 10-10V12c0-5.523-4.477-10-10-10z"/><path fill="#04847D" d="M98 88V53.246l-26.959-26.96a.996.996 0 0 0-1.41 0l-19.73 19.73-19.53-19.53c-.38-.38-1.04-.38-1.42 0a6.089 6.089 0 0 0-1.79 4.33c0 1.65.64 3.19 1.8 4.34l14.48 14.49 1.41 1.41-5.92 5.92c-.97-.37-2.01-.57-3.08-.57-2.32 0-4.5.9-6.15 2.55-3.39 3.39-3.39 8.91 0 12.3L56.437 98H88c5.523 0 10-4.477 10-10z"/><g fill="#FFF"><path d="M64.141 56.601a8.67 8.67 0 0 0-3.095.575l-4.816-4.823a3.027 3.027 0 0 1-.586.844l-4.33 4.326 4.696 4.697a8.676 8.676 0 0 0-.569 3.081c0 2.33.9 4.51 2.55 6.15a8.597 8.597 0 0 0 6.15 2.55c2.32 0 4.5-.9 6.15-2.55a8.628 8.628 0 0 0 2.54-6.15c0-2.32-.9-4.5-2.54-6.15a8.672 8.672 0 0 0-6.15-2.55zm0 12.88c-2.31 0-4.18-1.88-4.18-4.18a4.176 4.176 0 0 1 8.35 0c0 2.3-1.87 4.18-4.17 4.18z"/><path d="M43.438 49.647l4.339-4.34c.245-.244.53-.431.834-.576l-18.24-18.24c-.38-.38-1.04-.38-1.42 0a6.089 6.089 0 0 0-1.79 4.33c0 1.65.64 3.19 1.8 4.34l14.477 14.486z"/><path d="M52.24 53.77a2.972 2.972 0 0 1-.833-.575l-3.634-3.653a2.955 2.955 0 0 1-.571-.831l-8.267 8.267a8.709 8.709 0 0 0-3.084-.567c-2.32 0-4.5.9-6.15 2.55-3.39 3.39-3.39 8.91 0 12.3a8.672 8.672 0 0 0 6.15 2.55c2.33 0 4.51-.91 6.16-2.55 2.494-2.493 3.146-6.138 1.971-9.24l8.258-8.25zM35.851 69.282a4.174 4.174 0 1 1 4.18-4.17c0 2.3-1.87 4.17-4.18 4.17z"/><path d="M52.821 51.781c.19.19.44.29.71.29.26 0 .52-.1.71-.29l16.8-16.81c1.16-1.16 1.8-2.7 1.8-4.34s-.64-3.18-1.8-4.34a.996.996 0 0 0-1.41 0l-20.44 20.43a.996.996 0 0 0 0 1.41l3.63 3.65z"/></g><metadata><rdf:RDF xmlns:rdf="http://www.w3.org/1999/02/22-rdf-syntax-ns#" xmlns:rdfs="http://www.w3.org/2000/01/rdf-schema#" xmlns:dc="http://purl.org/dc/elements/1.1/"><rdf:Description about="https://iconscout.com/legal#licenses" dc:title="scissor,cut,barber,cutter" dc:description="scissor,cut,barber,cutter" dc:publisher="Iconscout" dc:date="2017-11-13" dc:format="image/svg+xml" dc:language="en"><dc:creator><rdf:Bag><rdf:li>Dinosoft Labs</rdf:li></rdf:Bag></dc:creator></rdf:Description></rdf:RDF></metadata></svg>